#!OML:ASF H:\Terrain\Patient Classification 1\Walking\liu\liu.ASF
:FULLY-SPECIFIED
:DEGREES
1
root 0 0 0 0 0 0
lowerback 0 0 0
upperback 0 0 0
thorax 0 0 0
lowerneck 0 0 0
upperneck 0 0 0
head 0 0 0
rclavicle 0 0
rhumerus 0 0 0
rradius 0
rwrist 0
rhand 0 0
rfingers 0
rthumb 0 0
lclavicle 0 0
lhumerus 0 0 0
lradius 0
lwrist 0
lhand 0 0
lfingers 0
lthumb 0 0
rfemur 0 0 0
rtibia 0
rfoot 0 0
rtoes 0
lfemur 0 0 0
ltibia 0
lfoot 0 0
ltoes 0
2
root 8.05845 15.9634 -38.972 7.82353 0.321983 -1.75491
lowerback -2.54841 0.158709 -0.437082
upperback -1.00855 0.201175 3.6903
thorax 0.379112 0.10764 4.049
lowerneck -22.7318 -2.70572 -12.1094
upperneck 21.7109 -1.21993 6.44232
head 10.8942 -0.762075 4.16978
rclavicle -3.67752e-015 1.90833e-014
rhumerus -37.6984 13.064 -85.3089
rradius 29.7162
rwrist -13.3035
rhand -30.6534 -29.4685
rfingers 7.12502
rthumb -3.94848 -59.4116
lclavicle -3.67752e-015 1.90833e-014
lhumerus -36.8345 -15.4448 95.6247
lradius 36.3426
lwrist 11.3783
lhand -9.68204 -24.3731
lfingers 7.12502
lthumb 16.2898 4.96261
rfemur -18.8698 4.80146 27.9231
rtibia 31.6656
rfoot -16.8058 3.51216
rtoes -8.27761
lfemur -29.8712 9.01394 -19.4459
ltibia 71.2293
lfoot 0 0
ltoes 0
3
root 8.06774 15.9731 -38.7444 8.40086 -0.557012 -1.79814
lowerback -2.72067 0.593977 -0.305586
upperback -1.21901 0.783483 3.51649
thorax 0.220897 0.402622 3.8105
lowerneck -22.685 -2.95585 -12.1019
upperneck 21.5656 -1.55378 6.35544
head 10.8679 -0.92124 4.07903
rclavicle 1.25234e-014 -3.97569e-015
rhumerus -36.9651 13.6072 -85.6751
rradius 30.2734
rwrist -13.6551
rhand -30.6301 -29.3408
rfingers 7.12502
rthumb -3.92596 -59.2844
lclavicle 1.25234e-014 -3.97569e-015
lhumerus -37.9155 -16.3615 96.3249
lradius 35.9751
lwrist 11.2858
lhand -9.66715 -23.0048
lfingers 7.12502
lthumb 16.3042 6.32983
rfemur -18.6535 4.69495 27.9661
rtibia 31.4983
rfoot -16.4491 4.27359
rtoes -5.81813
lfemur -32.3988 9.30978 -20.0115
ltibia 70.658
lfoot 0 0
ltoes 0
4
root 8.07445 15.9609 -38.5159 8.64072 -0.660912 -1.89709
lowerback -2.70982 0.773586 0.0150792
upperback -1.28056 1.01815 3.34091
thorax 0.144697 0.519662 3.4527
lowerneck -22.8825 -3.05629 -12.0388
upperneck 21.7134 -1.69855 6.37525
head 10.9744 -0.980723 4.05839
rclavicle -1.63997e-014 -1.11319e-014
rhumerus -36.1071 13.9816 -86.0157
rradius 31.0331
rwrist -14.1955
rhand -30.7031 -29.3937
rfingers 7.12502
rthumb -3.99647 -59.3359
lclavicle -1.63997e-014 -1.11319e-014
lhumerus -39.0831 -17.1772 96.8243
lradius 35.8044
lwrist 10.5623
lhand -9.72018 -22.0326
lfingers 7.12502
lthumb 16.2531 7.3062
rfemur -17.5211 4.4085 28.2154
rtibia 30.6278
rfoot -16.3812 4.31921
rtoes -4.55742
lfemur -34.5445 8.98102 -20.3659
ltibia 70.1735
lfoot 0 0
ltoes 0
5
root 8.07909 15.9192 -38.2806 8.63341 -0.606112 -2.35028
lowerback -2.57754 0.896064 0.622008
upperback -1.23745 1.16886 3.36075
thorax 0.117772 0.592478 3.13278
lowerneck -23.109 -3.03298 -12.0795
upperneck 21.952 -1.63592 6.41571
head 11.0996 -0.953958 4.09842
rclavicle -7.65321e-015 -1.51076e-014
rhumerus -35.382 14.8792 -86.4017
rradius 31.916
rwrist -14.8821
rhand -30.7046 -28.2832
rfingers 7.12502
rthumb -3.99784 -58.2254
lclavicle -7.65321e-015 -1.51076e-014
lhumerus -40.1561 -17.7156 97.3114
lradius 35.5731
lwrist 9.97225
lhand -9.47916 -22.3831
lfingers 7.12502
lthumb 16.4851 6.93652
rfemur -16.305 4.00239 28.9426
rtibia 30.2149
rfoot -16.4945 4.36689
rtoes -2.49359
lfemur -36.2872 8.65109 -20.1729
ltibia 69.4564
lfoot 0 0
ltoes 0
6
root 8.07595 16.0217 -38.0162 8.55357 -0.871766 -2.42791
lowerback -2.47945 1.06218 0.74404
upperback -1.07485 1.38518 3.31629
thorax 0.222902 0.698783 3.0234
lowerneck -23.5182 -3.10144 -12.3781
upperneck 22.1253 -1.63166 6.64141
head 11.2458 -0.948526 4.24161
rclavicle -1.26725e-014 2.54444e-014
rhumerus -34.5107 15.9485 -86.7142
rradius 32.7561
rwrist -15.5034
rhand -30.6018 -27.1791
rfingers 7.12502
rthumb -3.89857 -57.1232
lclavicle -1.26725e-014 2.54444e-014
lhumerus -40.9797 -17.9933 97.7442
lradius 35.2496
lwrist 9.72135
lhand -8.83461 -23.3161
lfingers 7.12502
lthumb 17.1056 5.95092
rfemur -14.8541 3.90245 29.1743
rtibia 29.7065
rfoot -16.7172 4.3408
rtoes -1.50778
lfemur -39.1441 8.85691 -20.5724
ltibia 68.4534
lfoot 0 0
ltoes 0
7
root 8.07792 15.9521 -37.7837 8.53901 -1.27799 -2.54701
lowerback -2.3245 1.27343 0.847058
upperback -0.971952 1.66579 3.29981
thorax 0.231897 0.838361 2.95288
lowerneck -24.0294 -3.2223 -12.9197
upperneck 22.3895 -1.67916 7.17056
head 11.4567 -0.949658 4.53792
rclavicle -1.0138e-014 0
rhumerus -33.5641 16.8759 -86.8801
rradius 33.5562
rwrist -16.1426
rhand -30.502 -26.9485
rfingers 7.12502
rthumb -3.80228 -56.8943
lclavicle -1.0138e-014 0
lhumerus -41.9807 -18.4159 98.2936
lradius 35.1463
lwrist 10.0215
lhand -8.08092 -23.7369
lfingers 7.12502
lthumb 17.831 5.46566
rfemur -13.7148 4.41796 29.4516
rtibia 29.508
rfoot -17.5416 4.03426
rtoes -3.06936
lfemur -39.8152 8.6557 -20.7095
ltibia 66.4888
lfoot -9.70458 16.4863
ltoes -25.1791
8
root 8.0736 15.9165 -37.5401 8.57644 -1.67763 -2.8407
lowerback -2.08895 1.42328 1.01807
upperback -1.09629 1.87356 3.38009
thorax -0.0342095 0.94352 2.93553
lowerneck -24.1313 -2.98981 -12.9439
upperneck 22.7833 -1.43061 7.50571
head 11.5965 -0.805457 4.72723
rclavicle -9.69075e-015 3.33958e-014
rhumerus -33.065 18.0369 -87.2261
rradius 34.3823
rwrist -16.7876
rhand -30.5489 -27.1079
rfingers 7.12502
rthumb -3.84751 -57.0529
lclavicle -9.69075e-015 3.33958e-014
lhumerus -43.325 -18.3184 98.7672
lradius 35.0173
lwrist 10.0553
lhand -7.58183 -23.4744
lfingers 7.12502
lthumb 18.3112 5.68372
rfemur -12.4962 4.85468 29.9192
rtibia 29.1149
rfoot -18.5218 3.43531
rtoes -7.34891
lfemur -40.7917 8.44157 -20.5581
ltibia 64.3069
lfoot -12.6825 15.718
ltoes -20.6931
9
root 8.07081 15.921 -37.2735 8.47019 -2.12087 -2.69151
lowerback -1.851 1.55327 0.726761
upperback -1.25791 2.06468 3.32288
thorax -0.349813 1.04271 3.03332
lowerneck -23.5856 -3.02199 -13.1275
upperneck 22.5499 -1.43902 7.35726
head 11.4082 -0.845371 4.68542
rclavicle 3.3694e-014 4.53229e-014
rhumerus -32.8688 19.3069 -87.7202
rradius 35.1586
rwrist -17.4417
rhand -31.091 -26.866
rfingers 7.12502
rthumb -4.37106 -56.8009
lclavicle 3.3694e-014 4.53229e-014
lhumerus -44.8734 -17.9499 99.1148
lradius 34.878
lwrist 9.80581
lhand -7.92582 -22.6218
lfingers 7.12502
lthumb 17.9802 6.56707
rfemur -11.3779 5.01059 29.8874
rtibia 29.166
rfoot -19.3939 2.57926
rtoes -12.7373
lfemur -41.4613 8.17198 -20.8248
ltibia 61.6167
lfoot -14.105 15.4458
ltoes -18.1715
10
root 8.07179 15.9178 -37.0049 8.34242 -2.505 -2.70318
lowerback -1.7175 1.76523 0.608681
upperback -1.27124 2.35352 3.32281
thorax -0.456854 1.18886 3.09831
lowerneck -23.4689 -3.12044 -13.4388
upperneck 22.5467 -1.4938 7.41016
head 11.3965 -0.892225 4.74735
rclavicle 9.88954e-015 -3.18055e-015
rhumerus -32.4784 20.443 -87.9483
rradius 35.9764
rwrist -18.1813
rhand -31.7147 -26.3849
rfingers 7.12502
rthumb -4.97322 -56.3065
lclavicle 9.88954e-015 -3.18055e-015
lhumerus -46.1745 -17.9054 99.6223
lradius 34.7074
lwrist 9.93046
lhand -8.84992 -21.8316
lfingers 7.12502
lthumb 17.0909 7.43667
rfemur -9.76869 5.17014 29.9857
rtibia 28.4726
rfoot -19.629 2.21172
rtoes -14.4996
lfemur -41.9742 7.87946 -20.8431
ltibia 58.7748
lfoot -14.8897 14.9501
ltoes -14.8874
11
root 8.07437 15.9122 -36.7394 8.30511 -2.72307 -3.09148
lowerback -1.844 1.96656 1.00518
upperback -1.08495 2.60639 3.42224
thorax -0.194506 1.31128 2.99013
lowerneck -24.027 -3.23666 -13.5188
upperneck 22.9056 -1.47666 7.14786
head 11.6379 -0.929814 4.6797
rclavicle -2.44008e-014 -2.46493e-014
rhumerus -31.5552 21.3792 -87.8613
rradius 36.7794
rwrist -18.7955
rhand -31.7557 -26.5119
rfingers 7.12502
rthumb -5.0128 -56.4326
lclavicle -2.44008e-014 -2.46493e-014
lhumerus -46.9517 -17.8698 100.031
lradius 34.2395
lwrist 9.99098
lhand -9.72445 -22.0794
lfingers 7.12502
lthumb 16.249 7.25971
rfemur -8.00763 5.26408 30.4771
rtibia 27.3515
rfoot -19.6991 2.07391
rtoes -14.7538
lfemur -42.6575 7.59806 -20.4437
ltibia 55.7834
lfoot -14.9423 14.4469
ltoes -12.6202
